<svg width="800" height="500" viewBox="0 0 800 500" xmlns="http://www.w3.org/2000/svg">
  <!-- Background -->
  <rect width="800" height="500" fill="#f8fafc" rx="10" ry="10"/>
  
  <!-- Title -->
  <text x="400" y="40" font-family="Arial" font-size="24" font-weight="bold" text-anchor="middle" fill="#0f172a">Read-Through Cache</text>
  <text x="400" y="70" font-family="Arial" font-size="16" text-anchor="middle" fill="#64748b">Cache automatically fetches missing data from database</text>
  
  <!-- Step 1: Read Request -->
  <g transform="translate(100, 120)">
    <rect x="0" y="0" width="150" height="60" rx="5" ry="5" fill="#dbeafe" stroke="#3b82f6" stroke-width="2"/>
    <text x="75" y="35" font-family="Arial" font-size="14" text-anchor="middle" fill="#1e40af">Application</text>
    
    <text x="75" y="-15" font-family="Arial" font-size="14" text-anchor="middle" font-weight="bold" fill="#0f172a">Step 1: Read Request</text>
    <text x="75" y="85" font-family="Arial" font-size="12" text-anchor="middle" fill="#64748b">App needs to read data</text>
    
    <text x="180" y="35" font-family="Arial" font-size="24" text-anchor="middle" fill="#0f172a">→</text>
  </g>
  
  <!-- Step 2: Cache Miss -->
  <g transform="translate(350, 120)">
    <rect x="0" y="0" width="150" height="60" rx="5" ry="5" fill="#e0f2fe" stroke="#0ea5e9" stroke-width="2"/>
    <text x="75" y="35" font-family="Arial" font-size="14" text-anchor="middle" fill="#0c4a6e">Cache</text>
    <text x="75" y="55" font-family="Arial" font-size="12" text-anchor="middle" fill="#ef4444">✗ Data not found</text>
    
    <rect x="0" y="100" width="150" height="60" rx="5" ry="5" fill="#ede9fe" stroke="#8b5cf6" stroke-width="2"/>
    <text x="75" y="135" font-family="Arial" font-size="14" text-anchor="middle" fill="#5b21b6">Database</text>
    
    <!-- Arrow from application to cache -->
    <path d="M -100 30 L -20 30" stroke="#0f172a" stroke-width="2" marker-end="url(#arrowhead)"/>
    
    <text x="75" y="-15" font-family="Arial" font-size="14" text-anchor="middle" font-weight="bold" fill="#0f172a">Step 2: Cache Miss</text>
    <text x="75" y="180" font-family="Arial" font-size="12" text-anchor="middle" fill="#64748b">Data is not found in cache</text>
    
    <text x="180" y="80" font-family="Arial" font-size="24" text-anchor="middle" fill="#0f172a">→</text>
  </g>
  
  <!-- Step 3: Automatic Fetch -->
  <g transform="translate(600, 120)">
    <rect x="0" y="0" width="150" height="60" rx="5" ry="5" fill="#e0f2fe" stroke="#0ea5e9" stroke-width="2"/>
    <text x="75" y="35" font-family="Arial" font-size="14" text-anchor="middle" fill="#0c4a6e">Cache</text>
    <text x="75" y="55" font-family="Arial" font-size="12" text-anchor="middle" fill="#16a34a">✓ Updated with data</text>
    
    <rect x="0" y="100" width="150" height="60" rx="5" ry="5" fill="#ede9fe" stroke="#8b5cf6" stroke-width="2"/>
    <text x="75" y="135" font-family="Arial" font-size="14" text-anchor="middle" fill="#5b21b6">Database</text>
    <text x="75" y="155" font-family="Arial" font-size="12" text-anchor="middle" fill="#16a34a">✓ Data retrieved</text>
    
    <!-- Arrow from cache to database and back -->
    <path d="M 75 60 C 75 70, 75 80, 75 100" stroke="#0f172a" stroke-width="2" marker-end="url(#arrowhead)"/>
    <path d="M 75 100 C 50 80, 50 60, 75 40" stroke="#0f172a" stroke-width="2" marker-end="url(#arrowhead)"/>
    <text x="30" y="80" font-family="Arial" font-size="10" text-anchor="middle" fill="#64748b">Automatic fetch</text>
    
    <!-- Return arrow to application -->
    <path d="M 75 0 C 0 -30, -250 -30, -325 30" stroke="#16a34a" stroke-width="2" marker-end="url(#arrowhead)"/>
    <text x="-125" y="-15" font-family="Arial" font-size="10" text-anchor="middle" fill="#16a34a">Return data to app</text>
    
    <text x="75" y="-15" font-family="Arial" font-size="14" text-anchor="middle" font-weight="bold" fill="#0f172a">Step 3: Automatic Fetch</text>
    <text x="75" y="180" font-family="Arial" font-size="12" text-anchor="middle" fill="#64748b">Cache automatically gets data from database</text>
  </g>
  
  <!-- Pros and Cons -->
  <g transform="translate(100, 350)">
    <rect x="0" y="0" width="250" height="120" rx="5" ry="5" fill="#f1f5f9" stroke="#94a3b8" stroke-width="1"/>
    <text x="125" y="25" font-family="Arial" font-size="16" text-anchor="middle" font-weight="bold" fill="#0f172a">Pros</text>
    <text x="20" y="50" font-family="Arial" font-size="14" fill="#16a34a">✓ Cache fills itself automatically</text>
    <text x="20" y="75" font-family="Arial" font-size="14" fill="#16a34a">✓ App doesn't need to manage cache</text>
    <text x="20" y="100" font-family="Arial" font-size="14" fill="#16a34a">✓ Simpler application code</text>
  </g>
  
  <g transform="translate(450, 350)">
    <rect x="0" y="0" width="250" height="120" rx="5" ry="5" fill="#f1f5f9" stroke="#94a3b8" stroke-width="1"/>
    <text x="125" y="25" font-family="Arial" font-size="16" text-anchor="middle" font-weight="bold" fill="#0f172a">Cons</text>
    <text x="20" y="50" font-family="Arial" font-size="14" fill="#ef4444">✗ First read is slow (cache miss)</text>
    <text x="20" y="75" font-family="Arial" font-size="14" fill="#ef4444">✗ Cache might fill with rarely used data</text>
    <text x="20" y="100" font-family="Arial" font-size="14" fill="#ef4444">✗ Less control over what gets cached</text>
  </g>
  
  <!-- When to Use -->
  <rect x="100" y="480" width="600" height="30" rx="5" ry="5" fill="#dbeafe" stroke="#3b82f6" stroke-width="1"/>
  <text x="400" y="500" font-family="Arial" font-size="14" text-anchor="middle" font-weight="bold" fill="#1e40af">
    Best for: Applications that need simple caching with minimal code complexity
  </text>
  
  <!-- Arrow Marker -->
  <defs>
    <marker id="arrowhead" markerWidth="10" markerHeight="7" refX="9" refY="3.5" orient="auto">
      <polygon points="0 0, 10 3.5, 0 7" fill="#0f172a"/>
    </marker>
  </defs>
</svg>

