<svg width="800" height="600" viewBox="0 0 800 600" xmlns="http://www.w3.org/2000/svg">
  <!-- Background -->
  <rect width="800" height="600" fill="#f8fafc" rx="10" ry="10"/>
  
  <!-- Title -->
  <text x="400" y="40" font-family="Arial" font-size="24" font-weight="bold" text-anchor="middle" fill="#0f172a">Read-Through Cache: Step by Step</text>
  
  <!-- Step 1: Initial State -->
  <g transform="translate(50, 100)">
    <rect x="0" y="0" width="150" height="30" rx="5" ry="5" fill="#dbeafe" stroke="#3b82f6" stroke-width="2"/>
    <text x="75" y="20" font-family="Arial" font-size="14" text-anchor="middle" fill="#1e40af">Application</text>
    
    <rect x="0" y="80" width="150" height="80" rx="5" ry="5" fill="#e0f2fe" stroke="#0ea5e9" stroke-width="2"/>
    <text x="75" y="100" font-family="Arial" font-size="14" text-anchor="middle" fill="#0c4a6e">Cache</text>
    <rect x="20" y="110" width="110" height="40" rx="3" ry="3" fill="#f1f5f9" stroke="#94a3b8" stroke-width="1"/>
    <text x="75" y="135" font-family="Arial" font-size="12" text-anchor="middle" fill="#334155">key1: "value1"</text>
    
    <rect x="0" y="200" width="150" height="80" rx="5" ry="5" fill="#ede9fe" stroke="#8b5cf6" stroke-width="2"/>
    <text x="75" y="220" font-family="Arial" font-size="14" text-anchor="middle" fill="#5b21b6">Database</text>
    <rect x="20" y="230" width="110" height="40" rx="3" ry="3" fill="#f1f5f9" stroke="#94a3b8" stroke-width="1"/>
    <text x="75" y="255" font-family="Arial" font-size="12" text-anchor="middle" fill="#334155">key1: "value1"</text>
    <rect x="20" y="255" width="110" height="15" rx="3" ry="3" fill="#f1f5f9" stroke="#94a3b8" stroke-width="1"/>
    <text x="75" y="267" font-family="Arial" font-size="12" text-anchor="middle" fill="#334155">key2: "value2"</text>
    
    <text x="75" y="310" font-family="Arial" font-size="14" text-anchor="middle" font-weight="bold" fill="#0f172a">Step 1: Initial State</text>
    <text x="75" y="330" font-family="Arial" font-size="12" text-anchor="middle" fill="#64748b">Cache has some data, database has all data</text>
  </g>
  
  <!-- Step 2: Cache Hit -->
  <g transform="translate(250, 100)">
    <rect x="0" y="0" width="150" height="30" rx="5" ry="5" fill="#dbeafe" stroke="#3b82f6" stroke-width="2"/>
    <text x="75" y="20" font-family="Arial" font-size="14" text-anchor="middle" fill="#1e40af">Application</text>
    
    <!-- Highlight application -->
    <rect x="-5" y="-5" width="160" height="40" rx="7" ry="7" fill="none" stroke="#3b82f6" stroke-width="2" stroke-dasharray="5,5"/>
    <text x="75" y="50" font-family="Arial" font-size="12" text-anchor="middle" fill="#3b82f6">Read request: key1</text>
    
    <!-- Arrow to cache -->
    <line x1="75" y1="50" x2="75" y2="70" stroke="#0f172a" stroke-width="2" marker-end="url(#arrowhead)"/>
    
    <rect x="0" y="80" width="150" height="80" rx="5" ry="5" fill="#e0f2fe" stroke="#0ea5e9" stroke-width="2"/>
    <text x="75" y="100" font-family="Arial" font-size="14" text-anchor="middle" fill="#0c4a6e">Cache</text>
    <rect x="20" y="110" width="110" height="40" rx="3" ry="3" fill="#f1f5f9" stroke="#94a3b8" stroke-width="1"/>
    <text x="75" y="135" font-family="Arial" font-size="12" text-anchor="middle" fill="#334155">key1: "value1"</text>
    
    <!-- Highlight cache -->
    <rect x="-5" y="75" width="160" height="90" rx="7" ry="7" fill="none" stroke="#0ea5e9" stroke-width="2" stroke-dasharray="5,5"/>
    <text x="75" y="185" font-family="Arial" font-size="12" text-anchor="middle" fill="#0ea5e9">Cache hit!</text>
    
    <!-- Return arrow -->
    <line x1="75" y1="80" x2="75" y2="60" stroke="#16a34a" stroke-width="2" stroke-dasharray="3,3" marker-end="url(#arrowhead)"/>
    
    <rect x="0" y="200" width="150" height="80" rx="5" ry="5" fill="#ede9fe" stroke="#8b5cf6" stroke-width="2"/>
    <text x="75" y="220" font-family="Arial" font-size="14" text-anchor="middle" fill="#5b21b6">Database</text>
    <rect x="20" y="230" width="110" height="40" rx="3" ry="3" fill="#f1f5f9" stroke="#94a3b8" stroke-width="1"/>
    <text x="75" y="255" font-family="Arial" font-size="12" text-anchor="middle" fill="#334155">key1: "value1"</text>
    <rect x="20" y="255" width="110" height="15" rx="3" ry="3" fill="#f1f5f9" stroke="#94a3b8" stroke-width="1"/>
    <text x="75" y="267" font-family="Arial" font-size="12" text-anchor="middle" fill="#334155">key2: "value2"</text>
    
    <text x="75" y="310" font-family="Arial" font-size="14" text-anchor="middle" font-weight="bold" fill="#0f172a">Step 2: Cache Hit</text>
    <text x="75" y="330" font-family="Arial" font-size="12" text-anchor="middle" fill="#64748b">key1 is found in cache and returned</text>
  </g>
  
  <!-- Step 3: Cache Miss -->
  <g transform="translate(450, 100)">
    <rect x="0" y="0" width="150" height="30" rx="5" ry="5" fill="#dbeafe" stroke="#3b82f6" stroke-width="2"/>
    <text x="75" y="20" font-family="Arial" font-size="14" text-anchor="middle" fill="#1e40af">Application</text>
    
    <!-- Highlight application -->
    <rect x="-5" y="-5" width="160" height="40" rx="7" ry="7" fill="none" stroke="#3b82f6" stroke-width="2" stroke-dasharray="5,5"/>
    <text x="75" y="50" font-family="Arial" font-size="12" text-anchor="middle" fill="#3b82f6">Read request: key2</text>
    
    <!-- Arrow to cache -->
    <line x1="75" y1="50" x2="75" y2="70" stroke="#0f172a" stroke-width="2" marker-end="url(#arrowhead)"/>
    
    <rect x="0" y="80" width="150" height="80" rx="5" ry="5" fill="#e0f2fe" stroke="#0ea5e9" stroke-width="2"/>
    <text x="75" y="100" font-family="Arial" font-size="14" text-anchor="middle" fill="#0c4a6e">Cache</text>
    <rect x="20" y="110" width="110" height="40" rx="3" ry="3" fill="#f1f5f9" stroke="#94a3b8" stroke-width="1"/>
    <text x="75" y="135" font-family="Arial" font-size="12" text-anchor="middle" fill="#334155">key1: "value1"</text>
    
    <!-- Highlight cache -->
    <rect x="-5" y="75" width="160" height="90" rx="7" ry="7" fill="none" stroke="#ef4444" stroke-width="2" stroke-dasharray="5,5"/>
    <text x="75" y="185" font-family="Arial" font-size="12" text-anchor="middle" fill="#ef4444">Cache miss!</text>
    
    <rect x="0" y="200" width="150" height="80" rx="5" ry="5" fill="#ede9fe" stroke="#8b5cf6" stroke-width="2"/>
    <text x="75" y="220" font-family="Arial" font-size="14" text-anchor="middle" fill="#5b21b6">Database</text>
    <rect x="20" y="230" width="110" height="40" rx="3" ry="3" fill="#f1f5f9" stroke="#94a3b8" stroke-width="1"/>
    <text x="75" y="255" font-family="Arial" font-size="12" text-anchor="middle" fill="#334155">key1: "value1"</text>
    <rect x="20" y="255" width="110" height="15" rx="3" ry="3" fill="#f1f5f9" stroke="#94a3b8" stroke-width="1"/>
    <text x="75" y="267" font-family="Arial" font-size="12" text-anchor="middle" fill="#334155">key2: "value2"</text>
    
    <text x="75" y="310" font-family="Arial" font-size="14" text-anchor="middle" font-weight="bold" fill="#0f172a">Step 3: Cache Miss</text>
    <text x="75" y="330" font-family="Arial" font-size="12" text-anchor="middle" fill="#64748b">key2 is not found in cache</text>
  </g>
  
  <!-- Step 4: Database Read -->
  <g transform="translate(650, 100)">
    <rect x="0" y="0" width="150" height="30" rx="5" ry="5" fill="#dbeafe" stroke="#3b82f6" stroke-width="2"/>
    <text x="75" y="20" font-family="Arial" font-size="14" text-anchor="middle" fill="#1e40af">Application</text>
    
    <rect x="0" y="80" width="150" height="80" rx="5" ry="5" fill="#e0f2fe" stroke="#0ea5e9" stroke-width="2"/>
    <text x="75" y="100" font-family="Arial" font-size="14" text-anchor="middle" fill="#0c4a6e">Cache</text>
    <rect x="20" y="110" width="110" height="40" rx="3" ry="3" fill="#f1f5f9" stroke="#94a3b8" stroke-width="1"/>
    <text x="75" y="135" font-family="Arial" font-size="12" text-anchor="middle" fill="#334155">key1: "value1"</text>
    
    <!-- Arrow from cache to database -->
    <line x1="75" y1="160" x2="75" y2="190" stroke="#0f172a" stroke-width="2" marker-end="url(#arrowhead)"/>
    <text x="110" y="175" font-family="Arial" font-size="10" text-anchor="middle" fill="#64748b">Fetch data</text>
    
    <rect x="0" y="200" width="150" height="80" rx="5" ry="5" fill="#ede9fe" stroke="#8b5cf6" stroke-width="2"/>
    <text x="75" y="220" font-family="Arial" font-size="14" text-anchor="middle" fill="#5b21b6">Database</text>
    <rect x="20" y="230" width="110" height="40" rx="3" ry="3" fill="#f1f5f9" stroke="#94a3b8" stroke-width="1"/>
    <text x="75" y="255" font-family="Arial" font-size="12" text-anchor="middle" fill="#334155">key1: "value1"</text>
    <rect x="20" y="255" width="110" height="15" rx="3" ry="3" fill="#f1f5f9" stroke="#94a3b8" stroke-width="1"/>
    <text x="75" y="267" font-family="Arial" font-size="12" text-anchor="middle" fill="#334155">key2: "value2"</text>
    
    <!-- Highlight database -->
    <rect x=  fill="#334155">key2: "value2"</text>
    
    <!-- Highlight database -->
    <rect x="-5" y="195" width="160" height="90" rx="7" ry="7" fill="none" stroke="#8b5cf6" stroke-width="2" stroke-dasharray="5,5"/>
    
    <text x="75" y="310" font-family="Arial" font-size="14" text-anchor="middle" font-weight="bold" fill="#0f172a">Step 4: Database Read</text>
    <text x="75" y="330" font-family="Arial" font-size="12" text-anchor="middle" fill="#64748b">Cache fetches key2 from database</text>
  </g>
  
  <!-- Step 5: Cache Update -->
  <g transform="translate(250, 350)">
    <rect x="0" y="0" width="150" height="30" rx="5" ry="5" fill="#dbeafe" stroke="#3b82f6" stroke-width="2"/>
    <text x="75" y="20" font-family="Arial" font-size="14" text-anchor="middle" fill="#1e40af">Application</text>
    
    <rect x="0" y="80" width="150" height="80" rx="5" ry="5" fill="#e0f2fe" stroke="#0ea5e9" stroke-width="2"/>
    <text x="75" y="100" font-family="Arial" font-size="14" text-anchor="middle" fill="#0c4a6e">Cache</text>
    <rect x="20" y="110" width="110" height="20" rx="3" ry="3" fill="#f1f5f9" stroke="#94a3b8" stroke-width="1"/>
    <text x="75" y="125" font-family="Arial" font-size="12" text-anchor="middle" fill="#334155">key1: "value1"</text>
    <rect x="20" y="130" width="110" height="20" rx="3" ry="3" fill="#f1f5f9" stroke="#94a3b8" stroke-width="1"/>
    <text x="75" y="145" font-family="Arial" font-size="12" text-anchor="middle" fill="#334155">key2: "value2"</text>
    
    <!-- Highlight cache -->
    <rect x="-5" y="75" width="160" height="90" rx="7" ry="7" fill="none" stroke="#0ea5e9" stroke-width="2" stroke-dasharray="5,5"/>
    <text x="75" y="185" font-family="Arial" font-size="12" text-anchor="middle" fill="#0ea5e9">Cache updated</text>
    
    <!-- Arrow from database to cache -->
    <path d="M 200 240 C 230 200, 230 150, 150 120" stroke="#0f172a" stroke-width="2" marker-end="url(#arrowhead)"/>
    
    <rect x="150" y="200" width="150" height="80" rx="5" ry="5" fill="#ede9fe" stroke="#8b5cf6" stroke-width="2"/>
    <text x="225" y="220" font-family="Arial" font-size="14" text-anchor="middle" fill="#5b21b6">Database</text>
    <rect x="170" y="230" width="110" height="40" rx="3" ry="3" fill="#f1f5f9" stroke="#94a3b8" stroke-width="1"/>
    <text x="225" y="255" font-family="Arial" font-size="12" text-anchor="middle" fill="#334155">key1: "value1"</text>
    <rect x="170" y="255" width="110" height="15" rx="3" ry="3" fill="#f1f5f9" stroke="#94a3b8" stroke-width="1"/>
    <text x="225" y="267" font-family="Arial" font-size="12" text-anchor="middle" fill="#334155">key2: "value2"</text>
    
    <text x="150" y="310" font-family="Arial" font-size="14" text-anchor="middle" font-weight="bold" fill="#0f172a">Step 5: Cache Update</text>
    <text x="150" y="330" font-family="Arial" font-size="12" text-anchor="middle" fill="#64748b">Cache is updated with key2 value</text>
  </g>
  
  <!-- Step 6: Read Complete -->
  <g transform="translate(450, 350)">
    <rect x="0" y="0" width="150" height="30" rx="5" ry="5" fill="#dbeafe" stroke="#3b82f6" stroke-width="2"/>
    <text x="75" y="20" font-family="Arial" font-size="14" text-anchor="middle" fill="#1e40af">Application</text>
    <text x="75" y="50" font-family="Arial" font-size="12" text-anchor="middle" fill="#16a34a">✓ Read complete</text>
    
    <!-- Return arrow -->
    <path d="M 75 80 C 50 60, 50 40, 75 30" stroke="#16a34a" stroke-width="2" marker-end="url(#arrowhead)"/>
    <text x="40" y="60" font-family="Arial" font-size="10" text-anchor="middle" fill="#16a34a">Return data</text>
    
    <rect x="0" y="80" width="150" height="80" rx="5" ry="5" fill="#e0f2fe" stroke="#0ea5e9" stroke-width="2"/>
    <text x="75" y="100" font-family="Arial" font-size="14" text-anchor="middle" fill="#0c4a6e">Cache</text>
    <rect x="20" y="110" width="110" height="20" rx="3" ry="3" fill="#f1f5f9" stroke="#94a3b8" stroke-width="1"/>
    <text x="75" y="125" font-family="Arial" font-size="12" text-anchor="middle" fill="#334155">key1: "value1"</text>
    <rect x="20" y="130" width="110" height="20" rx="3" ry="3" fill="#f1f5f9" stroke="#94a3b8" stroke-width="1"/>
    <text x="75" y="145" font-family="Arial" font-size="12" text-anchor="middle" fill="#334155">key2: "value2"</text>
    
    <rect x="0" y="200" width="150" height="80" rx="5" ry="5" fill="#ede9fe" stroke="#8b5cf6" stroke-width="2"/>
    <text x="75" y="220" font-family="Arial" font-size="14" text-anchor="middle" fill="#5b21b6">Database</text>
    <rect x="20" y="230" width="110" height="40" rx="3" ry="3" fill="#f1f5f9" stroke="#94a3b8" stroke-width="1"/>
    <text x="75" y="255" font-family="Arial" font-size="12" text-anchor="middle" fill="#334155">key1: "value1"</text>
    <rect x="20" y="255" width="110" height="15" rx="3" ry="3" fill="#f1f5f9" stroke="#94a3b8" stroke-width="1"/>
    <text x="75" y="267" font-family="Arial" font-size="12" text-anchor="middle" fill="#334155">key2: "value2"</text>
    
    <text x="75" y="310" font-family="Arial" font-size="14" text-anchor="middle" font-weight="bold" fill="#0f172a">Step 6: Read Complete</text>
    <text x="75" y="330" font-family="Arial" font-size="12" text-anchor="middle" fill="#64748b">Value returned to application</text>
  </g>
  
  <!-- Pros and Cons -->
  <g transform="translate(50, 450)">
    <rect x="0" y="0" width="300" height="120" rx="5" ry="5" fill="#f1f5f9" stroke="#94a3b8" stroke-width="1"/>
    <text x="150" y="25" font-family="Arial" font-size="16" text-anchor="middle" font-weight="bold" fill="#0f172a">Pros</text>
    <text x="20" y="50" font-family="Arial" font-size="14" fill="#16a34a">✓ Automatic cache population</text>
    <text x="20" y="75" font-family="Arial" font-size="14" fill="#16a34a">✓ Simplified application logic</text>
    <text x="20" y="100" font-family="Arial" font-size="14" fill="#16a34a">✓ Cache always has requested data after first access</text>
  </g>
  
  <g transform="translate(450, 450)">
    <rect x="0" y="0" width="300" height="120" rx="5" ry="5" fill="#f1f5f9" stroke="#94a3b8" stroke-width="1"/>
    <text x="150" y="25" font-family="Arial" font-size="16" text-anchor="middle" font-weight="bold" fill="#0f172a">Cons</text>
    <text x="20" y="50" font-family="Arial" font-size="14" fill="#ef4444">✗ Initial read latency on cache miss</text>
    <text x="20" y="75" font-family="Arial" font-size="14" fill="#ef4444">✗ Potential for cache pollution</text>
    <text x="20" y="100" font-family="Arial" font-size="14" fill="#ef4444">✗ May fetch unnecessary data</text>
  </g>
  
  <!-- Arrow Marker -->
  <defs>
    <marker id="arrowhead" markerWidth="10" markerHeight="7" refX="9" refY="3.5" orient="auto">
      <polygon points="0 0, 10 3.5, 0 7" fill="#0f172a"/>
    </marker>
  </defs>
</svg>

