<svg width="800" height="600" viewBox="0 0 800 600" xmlns="http://www.w3.org/2000/svg">
  <!-- Background -->
  <rect width="800" height="600" fill="#f8fafc" rx="10" ry="10"/>
  
  <!-- Title -->
  <text x="400" y="40" font-family="Arial" font-size="24" font-weight="bold" text-anchor="middle" fill="#0f172a">Write-Around Cache: Step by Step</text>
  
  <!-- Step 1: Initial State -->
  <g transform="translate(50, 100)">
    <rect x="0" y="0" width="150" height="30" rx="5" ry="5" fill="#dbeafe" stroke="#3b82f6" stroke-width="2"/>
    <text x="75" y="20" font-family="Arial" font-size="14" text-anchor="middle" fill="#1e40af">Application</text>
    
    <rect x="0" y="80" width="150" height="80" rx="5" ry="5" fill="#e0f2fe" stroke="#0ea5e9" stroke-width="2"/>
    <text x="75" y="100" font-family="Arial" font-size="14" text-anchor="middle" fill="#0c4a6e">Cache</text>
    <rect x="20" y="110" width="110" height="40" rx="3" ry="3" fill="#f1f5f9" stroke="#94a3b8" stroke-width="1"/>
    <text x="75" y="135" font-family="Arial" font-size="12" text-anchor="middle" fill="#334155">key1: "value1"</text>
    
    <rect x="0" y="200" width="150" height="80" rx="5" ry="5" fill="#ede9fe" stroke="#8b5cf6" stroke-width="2"/>
    <text x="75" y="220" font-family="Arial" font-size="14" text-anchor="middle" fill="#5b21b6">Database</text>
    <rect x="20" y="230" width="110" height="40" rx="3" ry="3" fill="#f1f5f9" stroke="#94a3b8" stroke-width="1"/>
    <text x="75" y="255" font-family="Arial" font-size="12" text-anchor="middle" fill="#334155">key1: "value1"</text>
    
    <text x="75" y="310" font-family="Arial" font-size="14" text-anchor="middle" font-weight="bold" fill="#0f172a">Step 1: Initial State</text>
    <text x="75" y="330" font-family="Arial" font-size="12" text-anchor="middle" fill="#64748b">System starts with synchronized data</text>
  </g>
  
  <!-- Step 2: Write Request -->
  <g transform="translate(250, 100)">
    <rect x="0" y="0" width="150" height="30" rx="5" ry="5" fill="#dbeafe" stroke="#3b82f6" stroke-width="2"/>
    <text x="75" y="20" font-family="Arial" font-size="14" text-anchor="middle" fill="#1e40af">Application</text>
    
    <!-- Highlight application -->
    <rect x="-5" y="-5" width="160" height="40" rx="7" ry="7" fill="none" stroke="#3b82f6" stroke-width="2" stroke-dasharray="5,5"/>
    <text x="75" y="50" font-family="Arial" font-size="12" text-anchor="middle" fill="#3b82f6">Write request: key1="new-value1"</text>
    
    <rect x="0" y="80" width="150" height="80" rx="5" ry="5" fill="#e0f2fe" stroke="#0ea5e9" stroke-width="2"/>
    <text x="75" y="100" font-family="Arial" font-size="14" text-anchor="middle" fill="#0c4a6e">Cache</text>
    <rect x="20" y="110" width="110" height="40" rx="3" ry="3" fill="#f1f5f9" stroke="#94a3b8" stroke-width="1"/>
    <text x="75" y="135" font-family="Arial" font-size="12" text-anchor="middle" fill="#334155">key1: "value1"</text>
    
    <rect x="0" y="200" width="150" height="80" rx="5" ry="5" fill="#ede9fe" stroke="#8b5cf6" stroke-width="2"/>
    <text x="75" y="220" font-family="Arial" font-size="14" text-anchor="middle" fill="#5b21b6">Database</text>
    <rect x="20" y="230" width="110" height="40" rx="3" ry="3" fill="#f1f5f9" stroke="#94a3b8" stroke-width="1"/>
    <text x="75" y="255" font-family="Arial" font-size="12" text-anchor="middle" fill="#334155">key1: "value1"</text>
    
    <text x="75" y="310" font-family="Arial" font-size="14" text-anchor="middle" font-weight="bold" fill="#0f172a">Step 2: Write Request</text>
    <text x="75" y="330" font-family="Arial" font-size="12" text-anchor="middle" fill="#64748b">Application receives write request</text>
  </g>
  
  <!-- Step 3: Database Update -->
  <g transform="translate(450, 100)">
    <rect x="0" y="0" width="150" height="30" rx="5" ry="5" fill="#dbeafe" stroke="#3b82f6" stroke-width="2"/>
    <text x="75" y="20" font-family="Arial" font-size="14" text-anchor="middle" fill="#1e40af">Application</text>
    
    <!-- Arrow to database only -->
    <path d="M 75 30 C 75 50, 150 120, 75 190" stroke="#0f172a" stroke-width="2" marker-end="url(#arrowhead)"/>
    <text x="120" y="100" font-family="Arial" font-size="10" text-anchor="middle" fill="#64748b">Direct write</text>
    
    <rect x="0" y="80" width="150" height="80" rx="5" ry="5" fill="#e0f2fe" stroke="#0ea5e9" stroke-width="2"/>
    <text x="75" y="100" font-family="Arial" font-size="14" text-anchor="middle" fill="#0c4a6e">Cache</text>
    <rect x="20" y="110" width="110" height="40" rx="3" ry="3" fill="#f1f5f9" stroke="#94a3b8" stroke-width="1"/>
    <text x="75" y="135" font-family="Arial" font-size="12" text-anchor="middle" fill="#334155">key1: "value1"</text>
    
    <rect x="0" y="200" width="150" height="80" rx="5" ry="5" fill="#ede9fe" stroke="#8b5cf6" stroke-width="2"/>
    <text x="75" y="220" font-family="Arial" font-size="14" text-anchor="middle" fill="#5b21b6">Database</text>
    <rect x="20" y="230" width="110" height="40" rx="3" ry="3" fill="#f1f5f9" stroke="#94a3b8" stroke-width="1"/>
    <text x="75" y="255" font-family="Arial" font-size="12" text-anchor="middle" fill="#334155">key1: "new-value1"</text>
    
    <!-- Highlight database -->
    <rect x="-5" y="195" width="160" height="90" rx="7" ry="7" fill="none" stroke="#8b5cf6" stroke-width="2" stroke-dasharray="5,5"/>
    
    <text x="75" y="310" font-family="Arial" font-size="14" text-anchor="middle" font-weight="bold" fill="#0f172a">Step 3: Database Update</text>
    <text x="75" y="330" font-family="Arial" font-size="12" text-anchor="middle" fill="#64748b">Database updated directly, bypassing cache</text>
  </g>
  
  <!-- Step 4: Cache Invalidation -->
  <g transform="translate(650, 100)">
    <rect x="0" y="0" width="150" height="30" rx="5" ry="5" fill="#dbeafe" stroke="#3b82f6" stroke-width="2"/>
    <text x="75" y="20" font-family="Arial" font-size="14" text-anchor="middle" fill="#1e40af">Application</text>
    
    <rect x="0" y="80" width="150" height="80" rx="5" ry="5" fill="#e0f2fe" stroke="#0ea5e9" stroke-width="2"/>
    <text x="75" y="100" font-family="Arial" font-size="14" text-anchor="middle" fill="#0c4a6e">Cache</text>
    
    <!-- Empty cache or invalidation -->
    <text x="75" y="135" font-family="Arial" font-size="12" text-anchor="middle" fill="#ef4444">key1 invalidated</text>
    <line x1="40" y1="120" x2="110" y2="150" stroke="#ef4444" stroke-width="1.5"/>
    <line x1="40" y1="150" x2="110" y2="120" stroke="#ef4444" stroke-width="1.5"/>
    
    <!-- Highlight cache -->
    <rect x="-5" y="75" width="160" height="90" rx="7" ry="7" fill="none" stroke="#0ea5e9" stroke-width="2" stroke-dasharray="5,5"/>
    
    <rect x="0" y="200" width="150" height="80" rx="5" ry="5" fill="#ede9fe" stroke="#8b5cf6" stroke-width="2"/>
    <text x="75" y="220" font-family="Arial" font-size="14" text-anchor="middle" fill="#5b21b6">Database</text>
    <rect x="20" y="230" width="110" height="40" rx="3" ry="3" fill="#f1f5f9" stroke="#94a3b8" stroke-width="1"/>
    <text x="75" y="255" font-family="Arial" font-size="12" text-anchor="middle" fill="#334155">key1: "new-value1"</text>
    
    <text x="75" y="310" font-family="Arial" font-size="14" text-anchor="middle" font-weight="bold" fill="#0f172a">Step 4: Cache Invalidation</text>
    <text x="75" y="330" font-family="Arial" font-size="12" text-anchor="middle" fill="#64748b">Cache entry for key1 is invalidated</text>
  </g>
  
  <!-- Step 5: Read Request (shown below) -->
  <g transform="translate(350, 350)">
    <rect x="0" y="0" width="150" height="30" rx="5" ry="5" fill="#dbeafe" stroke="#3b82f6" stroke-width="2"/>
    <text x="75" y="20" font-family="Arial" font-size="14" text-anchor="middle" fill="#1e40af">Application</text>
    <text x="75" y="50" font-family="Arial" font-size="12" text-anchor="middle" fill="#3b82f6">Read request: key1</text>
    
    <!-- Read path -->
    <path d="M 75 50 C 25 70, 25 150, 75 200" stroke="#0f172a" stroke-width="2" marker-end="url(#arrowhead)"/>
    <text x="30" y="120" font-family="Arial" font-size="10" text-anchor="middle" fill="#64748b">Cache miss</text>
    
    <path d="M 75 280 C 125 300, 125 70, 75 80" stroke="#0f172a" stroke-width="2" marker-end="url(#arrowhead)"/>
    <text x="120" y="200" font-family="Arial" font-size="10" text-anchor="middle" fill="#64748b">Update cache</text>
    
    <rect x="0" y="80" width="150" height="80" rx="5" ry="5" fill="#e0f2fe" stroke="#0ea5e9" stroke-width="2"/>
    <text x="75" y="100" font-family="Arial" font-size="14" text-anchor="middle" fill="#0c4a6e">Cache</text>
    <rect x="20" y="110" width="110" height="40" rx="3" ry="3" fill="#f1f5f9" stroke="#94a3b8" stroke-width="1"/>
    <text x="75" y="135" font-family="Arial" font-size="12" text-anchor="middle" fill="#334155">key1: "new-value1"</text>
    
    <rect x="0" y="200" width="150" height="80" rx="5" ry="5" fill="#ede9fe" stroke="#8b5cf6" stroke-width="2"/>
    <text x="75" y="220" font-family="Arial" font-size="14" text-anchor="middle" fill="#5b21b6">Database</text>
    <rect x="20" y="230" width="110" height="40" rx="3" ry="3" fill="#f1f5f9" stroke="#94a3b8" stroke-width="1"/>
    <text x="75" y="255" font-family="Arial" font-size="12" text-anchor="middle" fill="#334155">key1: "new-value1"</text>
    
    <text x="75" y="310" font-family="Arial" font-size="14" text-anchor="middle" font-weight="bold" fill="#0f172a">Step 5: Read Request</text>
    <text x="75" y="330" font-family="Arial" font-size="12" text-anchor="middle" fill="#64748b">On read, updated value fetched from database</text>
  </g>
  
  <!-- Pros and Cons -->
  <g transform="translate(50, 450)">
    <rect x="0" y="0" width="300" height="120" rx="5" ry="5" fill="#f1f5f9" stroke="#94a3b8" stroke-width="1"/>
    <text x="150" y="25" font-family="Arial" font-size="16" text-anchor="middle" font-weight="bold" fill="#0f172a">Pros</text>
    <text x="20" y="50" font-family="Arial" font-size="14" fill="#16a34a">✓ Prevents cache pollution for write-once data</text>
    <text x="20" y="75" font-family="Arial" font-size="14" fill="#16a34a">✓ Good for read-heavy workloads</text>
    <text x="20" y="100" font-family="Arial" font-size="14" fill="#16a34a">✓ Simpler than write-back</text>
  </g>
  
  <g transform="translate(450, 450)">
    <rect x="0" y="0" width="300" height="120" rx="5" ry="5" fill="#f1f5f9" stroke="#94a3b8" stroke-width="1"/>
    <text x="150" y="25" font-family="Arial" font-size="16" text-anchor="middle" font-weight="bold" fill="#0f172a">Cons</text>
    <text x="20" y="50" font-family="Arial" font-size="14" fill="#ef4444">✗ Cache misses on recently written data</text>
    <text x="20" y="75" font-family="Arial" font-size="14" fill="#ef4444">✗ Higher read latency after writes</text>
    <text x="20" y="100" font-family="Arial" font-size="14" fill="#ef4444">✗ Potential for stale data</text>
  </g>
  
  <!-- Arrow Marker -->
  <defs>
    <marker id="arrowhead" markerWidth="10" markerHeight="7" refX="9" refY="3.5" orient="auto">
      <polygon points="0 0, 10 3.5, 0 7" fill="#0f172a"/>
    </marker>
  </defs>
</svg>

