<svg width="800" height="400" viewBox="0 0 800 400" xmlns="http://www.w3.org/2000/svg">
  <!-- Background -->
  <rect width="800" height="400" fill="#f8fafc" rx="10" ry="10"/>
  
  <!-- Title -->
  <text x="400" y="40" font-family="Arial" font-size="24" font-weight="bold" text-anchor="middle" fill="#0f172a">How Caching Works</text>
  
  <!-- User -->
  <circle cx="100" cy="150" r="30" fill="#dbeafe" stroke="#3b82f6" stroke-width="2"/>
  <text x="100" y="155" font-family="Arial" font-size="14" text-anchor="middle" fill="#1e40af">User</text>
  
  <!-- Application -->
  <rect x="200" y="120" width="120" height="60" rx="5" ry="5" fill="#dbeafe" stroke="#3b82f6" stroke-width="2"/>
  <text x="260" y="155" font-family="Arial" font-size="14" text-anchor="middle" fill="#1e40af">Application</text>
  
  <!-- Cache -->
  <rect x="400" y="80" width="150" height="80" rx="5" ry="5" fill="#e0f2fe" stroke="#0ea5e9" stroke-width="2"/>
  <text x="475" y="110" font-family="Arial" font-size="16" text-anchor="middle" fill="#0c4a6e">Cache</text>
  <text x="475" y="135" font-family="Arial" font-size="12" text-anchor="middle" fill="#334155">Fast but limited storage</text>
  
  <!-- Database -->
  <rect x="400" y="200" width="150" height="80" rx="5" ry="5" fill="#ede9fe" stroke="#8b5cf6" stroke-width="2"/>
  <text x="475" y="230" font-family="Arial" font-size="16" text-anchor="middle" fill="#5b21b6">Database</text>
  <text x="475" y="255" font-family="Arial" font-size="12" text-anchor="middle" fill="#334155">Slower but stores everything</text>
  
  <!-- Arrows -->
  <line x1="130" y1="150" x2="190" y2="150" stroke="#0f172a" stroke-width="2" marker-end="url(#arrowhead)"/>
  <text x="160" y="140" font-family="Arial" font-size="12" text-anchor="middle" fill="#64748b">Request</text>
  
  <line x1="320" y1="140" x2="390" y2="120" stroke="#0f172a" stroke-width="2" marker-end="url(#arrowhead)"/>
  <text x="355" y="110" font-family="Arial" font-size="12" text-anchor="middle" fill="#64748b">Check first</text>
  
  <path d="M 320 160 C 350 180, 370 180, 390 220" stroke="#0f172a" stroke-width="2" marker-end="url(#arrowhead)"/>
  <text x="355" y="200" font-family="Arial" font-size="12" text-anchor="middle" fill="#64748b">If not in cache</text>
  
  <path d="M 475 160 C 500 170, 500 190, 475 200" stroke="#0f172a" stroke-width="2" marker-end="url(#arrowhead)"/>
  <text x="520" y="180" font-family="Arial" font-size="12" text-anchor="middle" fill="#64748b">Update</text>
  
  <line x1="190" y1="160" x2="130" y2="160" stroke="#0f172a" stroke-width="2" marker-end="url(#arrowhead)"/>
  <text x="160" y="180" font-family="Arial" font-size="12" text-anchor="middle" fill="#64748b">Response</text>
  
  <!-- Explanation -->
  <rect x="100" y="300" width="600" height="80" rx="5" ry="5" fill="#f1f5f9" stroke="#94a3b8" stroke-width="1"/>
  <text x="400" y="325" font-family="Arial" font-size="14" text-anchor="middle" fill="#0f172a">
    The application first checks the cache for data. If found (a "cache hit"), it returns it quickly.
  </text>
  <text x="400" y="350" font-family="Arial" font-size="14" text-anchor="middle" fill="#0f172a">
    If not found (a "cache miss"), it gets the data from the database and may store it in the cache for next time.
  </text>
  <text x="400" y="375" font-family="Arial" font-size="14" text-anchor="middle" font-weight="bold" fill="#0f172a">
    The different caching strategies determine exactly when and how this happens.
  </text>
  
  <!-- Arrow Marker -->
  <defs>
    <marker id="arrowhead" markerWidth="10" markerHeight="7" refX="9" refY="3.5" orient="auto">
      <polygon points="0 0, 10 3.5, 0 7" fill="#0f172a"/>
    </marker>
  </defs>
</svg>

