<svg width="800" height="600" viewBox="0 0 800 600" xmlns="http://www.w3.org/2000/svg">
  <!-- Background -->
  <rect width="800" height="600" fill="#f8fafc" rx="10" ry="10"/>
  
  <!-- Title -->
  <text x="400" y="40" font-family="Arial" font-size="24" font-weight="bold" text-anchor="middle" fill="#0f172a">Write-Through Cache: Step by Step</text>
  
  <!-- Step 1: Initial State -->
  <g transform="translate(50, 100)">
    <rect x="0" y="0" width="150" height="30" rx="5" ry="5" fill="#dbeafe" stroke="#3b82f6" stroke-width="2"/>
    <text x="75" y="20" font-family="Arial" font-size="14" text-anchor="middle" fill="#1e40af">Application</text>
    
    <rect x="0" y="80" width="150" height="80" rx="5" ry="5" fill="#e0f2fe" stroke="#0ea5e9" stroke-width="2"/>
    <text x="75" y="100" font-family="Arial" font-size="14" text-anchor="middle" fill="#0c4a6e">Cache</text>
    <rect x="20" y="110" width="110" height="40" rx="3" ry="3" fill="#f1f5f9" stroke="#94a3b8" stroke-width="1"/>
    <text x="75" y="135" font-family="Arial" font-size="12" text-anchor="middle" fill="#334155">key1: "value1"</text>
    
    <rect x="0" y="200" width="150" height="80" rx="5" ry="5" fill="#ede9fe" stroke="#8b5cf6" stroke-width="2"/>
    <text x="75" y="220" font-family="Arial" font-size="14" text-anchor="middle" fill="#5b21b6">Database</text>
    <rect x="20" y="230" width="110" height="40" rx="3" ry="3" fill="#f1f5f9" stroke="#94a3b8" stroke-width="1"/>
    <text x="75" y="255" font-family="Arial" font-size="12" text-anchor="middle" fill="#334155">key1: "value1"</text>
    
    <text x="75" y="310" font-family="Arial" font-size="14" text-anchor="middle" font-weight="bold" fill="#0f172a">Step 1: Initial State</text>
    <text x="75" y="330" font-family="Arial" font-size="12" text-anchor="middle" fill="#64748b">System starts with synchronized data</text>
  </g>
  
  <!-- Step 2: Write Request -->
  <g transform="translate(250, 100)">
    <rect x="0" y="0" width="150" height="30" rx="5" ry="5" fill="#dbeafe" stroke="#3b82f6" stroke-width="2"/>
    <text x="75" y="20" font-family="Arial" font-size="14" text-anchor="middle" fill="#1e40af">Application</text>
    
    <!-- Highlight application -->
    <rect x="-5" y="-5" width="160" height="40" rx="7" ry="7" fill="none" stroke="#3b82f6" stroke-width="2" stroke-dasharray="5,5"/>
    <text x="75" y="50" font-family="Arial" font-size="12" text-anchor="middle" fill="#3b82f6">Write request: key1="new-value1"</text>
    
    <rect x="0" y="80" width="150" height="80" rx="5" ry="5" fill="#e0f2fe" stroke="#0ea5e9" stroke-width="2"/>
    <text x="75" y="100" font-family="Arial" font-size="14" text-anchor="middle" fill="#0c4a6e">Cache</text>
    <rect x="20" y="110" width="110" height="40" rx="3" ry="3" fill="#f1f5f9" stroke="#94a3b8" stroke-width="1"/>
    <text x="75" y="135" font-family="Arial" font-size="12" text-anchor="middle" fill="#334155">key1: "value1"</text>
    
    <rect x="0" y="200" width="150" height="80" rx="5" ry="5" fill="#ede9fe" stroke="#8b5cf6" stroke-width="2"/>
    <text x="75" y="220" font-family="Arial" font-size="14" text-anchor="middle" fill="#5b21b6">Database</text>
    <rect x="20" y="230" width="110" height="40" rx="3" ry="3" fill="#f1f5f9" stroke="#94a3b8" stroke-width="1"/>
    <text x="75" y="255" font-family="Arial" font-size="12" text-anchor="middle" fill="#334155">key1: "value1"</text>
    
    <text x="75" y="310" font-family="Arial" font-size="14" text-anchor="middle" font-weight="bold" fill="#0f172a">Step 2: Write Request</text>
    <text x="75" y="330" font-family="Arial" font-size="12" text-anchor="middle" fill="#64748b">Application receives write request</text>
  </g>
  
  <!-- Step 3: Simultaneous Write -->
  <g transform="translate(450, 100)">
    <rect x="0" y="0" width="150" height="30" rx="5" ry="5" fill="#dbeafe" stroke="#3b82f6" stroke-width="2"/>
    <text x="75" y="20" font-family="Arial" font-size="14" text-anchor="middle" fill="#1e40af">Application</text>
    
    <!-- Arrows to both cache and database -->
    <line x1="75" y1="30" x2="75" y2="70" stroke="#0f172a" stroke-width="2" marker-end="url(#arrowhead)"/>
    <line x1="75" y1="160" x2="75" y2="190" stroke="#0f172a" stroke-width="2" marker-end="url(#arrowhead)"/>
    
    <rect x="0" y="80" width="150" height="80" rx="5" ry="5" fill="#e0f2fe" stroke="#0ea5e9" stroke-width="2"/>
    <text x="75" y="100" font-family="Arial" font-size="14" text-anchor="middle" fill="#0c4a6e">Cache</text>
    <rect x="20" y="110" width="110" height="40" rx="3" ry="3" fill="#f1f5f9" stroke="#94a3b8" stroke-width="1"/>
    <text x="75" y="135" font-family="Arial" font-size="12" text-anchor="middle" fill="#334155">key1: "new-value1"</text>
    
    <!-- Highlight cache -->
    <rect x="-5" y="75" width="160" height="90" rx="7" ry="7" fill="none" stroke="#0ea5e9" stroke-width="2" stroke-dasharray="5,5"/>
    
    <rect x="0" y="200" width="150" height="80" rx="5" ry="5" fill="#ede9fe" stroke="#8b5cf6" stroke-width="2"/>
    <text x="75" y="220" font-family="Arial" font-size="14" text-anchor="middle" fill="#5b21b6">Database</text>
    <rect x="20" y="230" width="110" height="40" rx="3" ry="3" fill="#f1f5f9" stroke="#94a3b8" stroke-width="1"/>
    <text x="75" y="255" font-family="Arial" font-size="12" text-anchor="middle" fill="#334155">key1: "new-value1"</text>
    
    <!-- Highlight database -->
    <rect x="-5" y="195" width="160" height="90" rx="7" ry="7" fill="none" stroke="#8b5cf6" stroke-width="2" stroke-dasharray="5,5"/>
    
    <text x="75" y="310" font-family="Arial" font-size="14" text-anchor="middle" font-weight="bold" fill="#0f172a">Step 3: Simultaneous Write</text>
    <text x="75" y="330" font-family="Arial" font-size="12" text-anchor="middle" fill="#64748b">Cache and database updated together</text>
  </g>
  
  <!-- Step 4: Write Complete -->
  <g transform="translate(650, 100)">
    <rect x="0" y="0" width="150" height="30" rx="5" ry="5" fill="#dbeafe" stroke="#3b82f6" stroke-width="2"/>
    <text x="75" y="20" font-family="Arial" font-size="14" text-anchor="middle" fill="#1e40af">Application</text>
    <text x="75" y="50" font-family="Arial" font-size="12" text-anchor="middle" fill="#16a34a">✓ Write complete</text>
    
    <rect x="0" y="80" width="150" height="80" rx="5" ry="5" fill="#e0f2fe" stroke="#0ea5e9" stroke-width="2"/>
    <text x="75" y="100" font-family="Arial" font-size="14" text-anchor="middle" fill="#0c4a6e">Cache</text>
    <rect x="20" y="110" width="110" height="40" rx="3" ry="3" fill="#f1f5f9" stroke="#94a3b8" stroke-width="1"/>
    <text x="75" y="135" font-family="Arial" font-size="12" text-anchor="middle" fill="#334155">key1: "new-value1"</text>
    
    <rect x="0" y="200" width="150" height="80" rx="5" ry="5" fill="#ede9fe" stroke="#8b5cf6" stroke-width="2"/>
    <text x="75" y="220" font-family="Arial" font-size="14" text-anchor="middle" fill="#5b21b6">Database</text>
    <rect x="20" y="230" width="110" height="40" rx="3" ry="3" fill="#f1f5f9" stroke="#94a3b8" stroke-width="1"/>
    <text x="75" y="255" font-family="Arial" font-size="12" text-anchor="middle" fill="#334155">key1: "new-value1"</text>
    
    <!-- Consistency indicator -->
    <line x1="75" y1="160" x2="75" y2="200" stroke="#16a34a" stroke-width="2" stroke-dasharray="5,5"/>
    <text x="120" y="180" font-family="Arial" font-size="12" text-anchor="middle" fill="#16a34a">In sync</text>
    
    <text x="75" y="310" font-family="Arial" font-size="14" text-anchor="middle" font-weight="bold" fill="#0f172a">Step 4: Write Complete</text>
    <text x="75" y="330" font-family="Arial" font-size="12" text-anchor="middle" fill="#64748b">Both systems are in sync</text>
  </g>
  
  <!-- Pros and Cons -->
  <g transform="translate(50, 450)">
    <rect x="0" y="0" width="300" height="120" rx="5" ry="5" fill="#f1f5f9" stroke="#94a3b8" stroke-width="1"/>
    <text x="150" y="25" font-family="Arial" font-size="16" text-anchor="middle" font-weight="bold" fill="#0f172a">Pros</text>
    <text x="20" y="50" font-family="Arial" font-size="14" fill="#16a34a">✓ Data consistency between systems</text>
    <text x="20" y="75" font-family="Arial" font-size="14" fill="#16a34a">✓ Simple to implement</text>
    <text x="20" y="100" font-family="Arial" font-size="14" fill="#16a34a">✓ No stale data</text>
  </g>
  
  <g transform="translate(450, 450)">
    <rect x="0" y="0" width="300" height="120" rx="5" ry="5" fill="#f1f5f9" stroke="#94a3b8" stroke-width="1"/>
    <text x="150" y="25" font-family="Arial" font-size="16" text-anchor="middle" font-weight="bold" fill="#0f172a">Cons</text>
    <text x="20" y="50" font-family="Arial" font-size="14" fill="#ef4444">✗ Higher write latency</text>
    <text x="20" y="75" font-family="Arial" font-size="14" fill="#ef4444">✗ More write operations to database</text>
    <text x="20" y="100" font-family="Arial" font-size="14" fill="#ef4444">✗ Higher system load during writes</text>
  </g>
  
  <!-- Arrow Marker -->
  <defs>
    <marker id="arrowhead" markerWidth="10" markerHeight="7" refX="9" refY="3.5" orient="auto">
      <polygon points="0 0, 10 3.5, 0 7" fill="#0f172a"/>
    </marker>
  </defs>
</svg>

